<?xml version="1.0" encoding="UTF-8"?>
<svg width="14px" height="24px" viewBox="0 0 14 24" version="1.1" xmlns="http://www.w3.org/2000/svg" xmlns:xlink="http://www.w3.org/1999/xlink">
    <!-- Generator: Sketch 49.3 (51167) - http://www.bohemiancoding.com/sketch -->
    <title>Shape</title>
    <desc>Created with Sketch.</desc>
    <defs></defs>
    <g id="Page-1" stroke="none" stroke-width="1" fill="none" fill-rule="evenodd">
        <path d="M9.601,21.5 C9.601,22.88 8.485,24 7.102,24 C5.724,24 4.603,22.88 4.603,21.5 C4.603,20.12 5.724,19 7.102,19 C8.485,19 9.601,20.119 9.601,21.5 Z M7.181,0 C3.152,0 0.121,2.693 0.121,8 L4.076,8 C4.076,5.696 4.982,3.811 7.1,3.811 C8.347,3.811 9.67,4.639 9.784,6.222 C9.907,7.888 9.017,8.733 7.892,9.804 C4.968,12.584 5.076,13.853 5.076,17 L9.019,17 C9.019,15.548 8.862,14.492 10.857,12.341 C12.188,10.905 13.843,9.119 13.878,6.398 C13.925,2.435 11.127,1.77635684e-15 7.181,1.77635684e-15 Z" id="Shape" fill="#FFFFFF" fill-rule="nonzero"></path>
    </g>
</svg>